# xmcd
#
# Track frame offsets:
#	187
#	16625
#	31770
#	49557
#	60690
#	75647
#	90852
#	101550
#	116927
#	134725
#	152180
#	162407
#	173530
#	184642
#	204287
#	219900
#
# Disc length: 3099 seconds
#
# Revision: 1
# Processed by: cddbd v1.5.1PL0 Copyright (c) Steve Scherf et al.
# Submitted via: CDex 1.50Beta5
#
DISCID=c20c1910
DTITLE=アントニオ・パントーハ - 決定版フォルクローレのすべて
DYEAR=1988
DGENRE=
TTITLE0=アントニオ・パントーハ/コンドルは飛んで行く
TTITLE1=ウニャ・ラモス/灰色の瞳
TTITLE2=ロス・キジャ・ウアシ/ツクマンの月
TTITLE3=ドミンゴ・クーラ/古きチャカレーカ
TTITLE4=アントニオ・パントーハ/アイマラ族のお祭り
TTITLE5=ウニャ・ラモス/忘却の種子
TTITLE6=ロス・ライカス/カルナバル
TTITLE7=コンドルカンキ/アルフォンシーナと海
TTITLE8=ウニャ・ラモス/太陽の乙女たち
TTITLE9=アントニオ・パントーハ/風のケーナのロマンス
TTITLE10=コンドルカンキ/谷間のカーニバル
TTITLE11=アントニオ・パントーハ/グアダルキビール
TTITLE12=ウニャ・ラモス/コージャ族のクエカ
TTITLE13=アントニオ・パントーハ/コージャ族のお祭り
TTITLE14=ドミンゴ・クーラ/レトゥンボ
TTITLE15=ウニャ・ラモス/花祭り
EXTD=
EXTT0=
EXTT1=
EXTT2=
EXTT3=
EXTT4=
EXTT5=
EXTT6=
EXTT7=
EXTT8=
EXTT9=
EXTT10=
EXTT11=
EXTT12=
EXTT13=
EXTT14=
EXTT15=
PLAYORDER=
